<svg width="20" height="20" viewBox="0 0 20 20" fill="none" xmlns="http://www.w3.org/2000/svg">
<path d="M9.16669 1.66666H7.50002C3.33335 1.66666 1.66669 3.33332 1.66669 7.49999V12.5C1.66669 16.6667 3.33335 18.3333 7.50002 18.3333H12.5C16.6667 18.3333 18.3334 16.6667 18.3334 12.5V10.8333" stroke="#27272A" stroke-width="1.5" stroke-linecap="round" stroke-linejoin="round"/>
<path d="M13.3667 2.51666L6.79999 9.08333C6.5185 9.39211 6.32811 9.77287 6.24999 10.1833L5.89166 12.6917C5.84813 12.8867 5.85455 13.0895 5.91033 13.2814C5.96611 13.4733 6.06943 13.648 6.21073 13.7893C6.35202 13.9306 6.5267 14.0339 6.71858 14.0897C6.91045 14.1454 7.1133 14.1519 7.30832 14.1083L9.81666 13.75C10.2259 13.6683 10.6058 13.4784 10.9167 13.2L17.4833 6.63333C18.6167 5.5 19.15 4.18333 17.4833 2.51666C15.8167 0.849997 14.5 1.38333 13.3667 2.51666Z" stroke="#27272A" stroke-width="1.5" stroke-linecap="round" stroke-linejoin="round"/>
<path d="M12.425 3.45831C12.7013 4.43954 13.225 5.33337 13.9458 6.05418C14.6666 6.775 15.5604 7.29865 16.5417 7.57498" stroke="#27272A" stroke-width="1.5" stroke-linecap="round" stroke-linejoin="round"/>
</svg>
