<svg width="25" height="24" viewBox="0 0 25 24" fill="none" xmlns="http://www.w3.org/2000/svg">
<path d="M9.645 2.84001L4.255 7.04001C3.77549 7.45661 3.38423 7.96499 3.10428 8.53518C2.82434 9.10538 2.66138 9.72584 2.625 10.36L2.625 17.77C2.62631 18.8871 3.06997 19.9582 3.85893 20.749C4.64789 21.5398 5.71793 21.986 6.835 21.99H18.415C19.5305 21.9866 20.5993 21.5419 21.3881 20.7531C22.1769 19.9644 22.6216 18.8955 22.625 17.78V10.5C22.5873 9.83009 22.4072 9.1759 22.0968 8.58101C21.7864 7.98613 21.3529 7.46421 20.825 7.05001L14.645 2.71701C13.8935 2.23893 13.0167 1.99534 12.1263 2.01724C11.2359 2.03915 10.3721 2.32556 9.645 2.84001Z" stroke="#71717A" stroke-width="1.5" stroke-linecap="round" stroke-linejoin="round"/>
<path d="M12.625 17.99V14.99" stroke="#71717A" stroke-width="1.5" stroke-linecap="round" stroke-linejoin="round"/>
</svg>
