<svg width="25" height="24" viewBox="0 0 25 24" fill="none" xmlns="http://www.w3.org/2000/svg">
<path d="M12.52 2.91C10.9287 2.91 9.40259 3.54214 8.27737 4.66736C7.15215 5.79258 6.52001 7.3187 6.52001 8.91V11.8C6.488 12.5209 6.29313 13.2252 5.95001 13.86L4.80001 15.77C4.62827 16.0225 4.51928 16.3124 4.48211 16.6155C4.44493 16.9187 4.48064 17.2263 4.58626 17.5128C4.69188 17.7994 4.86437 18.0566 5.08939 18.2631C5.31441 18.4696 5.58545 18.6193 5.88001 18.7C10.1861 20.14 14.8439 20.14 19.15 18.7C19.4344 18.6051 19.6939 18.4475 19.9092 18.2389C20.1245 18.0302 20.2901 17.7758 20.3938 17.4944C20.4975 17.2131 20.5367 16.9121 20.5083 16.6136C20.4799 16.3151 20.3848 16.0268 20.23 15.77L19.08 13.86C18.7445 13.2227 18.5533 12.5194 18.52 11.8V8.91C18.5153 7.32017 17.8816 5.7968 16.7574 4.67261C15.6332 3.54842 14.1098 2.91475 12.52 2.91Z" stroke="#71717A" stroke-width="1.5" stroke-linecap="round"/>
<path d="M14.37 3.20024C14.0559 3.10772 13.7349 3.04083 13.41 3.00024C12.4926 2.87848 11.56 2.94656 10.67 3.20024C10.8161 2.8287 11.0708 2.50977 11.4008 2.285C11.7307 2.06022 12.1207 1.94 12.52 1.94C12.9192 1.94 13.3092 2.06022 13.6392 2.285C13.9692 2.50977 14.2238 2.8287 14.37 3.20024Z" stroke="#71717A" stroke-width="1.5" stroke-linecap="round" stroke-linejoin="round"/>
<path d="M15.52 19.06C15.5176 19.8549 15.2008 20.6166 14.6387 21.1787C14.0766 21.7408 13.3149 22.0576 12.52 22.06C11.7249 22.0581 10.9628 21.7417 10.4 21.18C9.83827 20.6172 9.52192 19.8551 9.52002 19.06" stroke="#71717A" stroke-width="1.5"/>
</svg>
