<svg width="25" height="24" viewBox="0 0 25 24" fill="none" xmlns="http://www.w3.org/2000/svg">
<path d="M7.59709 4.10104C9.15924 3.05724 10.9958 2.50008 12.8746 2.5C15.393 2.50412 17.8071 3.50638 19.5878 5.28716C21.3687 7.06803 22.371 9.48226 22.375 12.0008C22.3748 13.8794 21.8177 15.7159 20.774 17.2779C19.7301 18.8402 18.2464 20.0578 16.5105 20.7769C14.7746 21.4959 12.8645 21.684 11.0216 21.3175C9.17883 20.9509 7.48609 20.0461 6.15749 18.7175C4.82889 17.3889 3.9241 15.6962 3.55754 13.8534C3.19098 12.0105 3.37912 10.1004 4.09815 8.36451C4.81718 6.62861 6.03482 5.14491 7.59709 4.10104ZM14.125 16V13.25H16.875C17.2065 13.25 17.5245 13.1183 17.7589 12.8839C17.9933 12.6495 18.125 12.3315 18.125 12C18.125 11.6685 17.9933 11.3505 17.7589 11.1161C17.5245 10.8817 17.2065 10.75 16.875 10.75H14.125V8C14.125 7.66848 13.9933 7.35054 13.7589 7.11612C13.5245 6.8817 13.2065 6.75 12.875 6.75C12.5435 6.75 12.2255 6.8817 11.9911 7.11612C11.7567 7.35054 11.625 7.66848 11.625 8V10.75H8.875C8.54348 10.75 8.22554 10.8817 7.99112 11.1161C7.7567 11.3505 7.625 11.6685 7.625 12C7.625 12.3315 7.7567 12.6495 7.99112 12.8839C8.22554 13.1183 8.54348 13.25 8.875 13.25H11.625V16C11.625 16.3315 11.7567 16.6495 11.9911 16.8839C12.2255 17.1183 12.5435 17.25 12.875 17.25C13.2065 17.25 13.5245 17.1183 13.7589 16.8839C13.9933 16.6495 14.125 16.3315 14.125 16Z" fill="#0A8080" stroke="#0A8080"/>
</svg>
