<svg width="25" height="24" viewBox="0 0 25 24" fill="none" xmlns="http://www.w3.org/2000/svg">
<path d="M12.66 10.87C12.5502 10.86 12.4398 10.86 12.33 10.87C11.1662 10.8268 10.0659 10.3285 9.2656 9.48242C8.46536 8.63632 8.02914 7.50994 8.05075 6.34555C8.07237 5.18115 8.55011 4.07175 9.38121 3.25593C10.2123 2.44012 11.3304 1.98306 12.495 1.98306C13.6596 1.98306 14.7777 2.44012 15.6088 3.25593C16.4399 4.07175 16.9176 5.18115 16.9392 6.34555C16.9608 7.50994 16.5246 8.63632 15.7244 9.48242C14.9241 10.3285 13.8238 10.8268 12.66 10.87Z" stroke="#71717A" stroke-width="1.5" stroke-linecap="round" stroke-linejoin="round"/>
<path d="M7.65997 14.561C5.23997 16.181 5.23997 18.821 7.65997 20.431C9.17323 21.3342 10.9027 21.811 12.665 21.811C14.4273 21.811 16.1567 21.3342 17.67 20.431C20.09 18.811 20.09 16.171 17.67 14.561C16.1551 13.6626 14.4262 13.1885 12.665 13.1885C10.9037 13.1885 9.17488 13.6626 7.65997 14.561Z" stroke="#71717A" stroke-width="1.5" stroke-linecap="round" stroke-linejoin="round"/>
</svg>
