<svg width="151" height="192" viewBox="0 0 151 192" fill="none" xmlns="http://www.w3.org/2000/svg">
<path d="M689.484 26.7894L552.624 1.89023C538.533 -0.673332 524.056 -0.180227 510.173 3.33618L422.302 25.5916C405.712 29.7935 388.321 29.6673 371.794 25.2251L300.16 5.97184C280.832 0.777022 260.39 1.50121 241.479 8.05073L187.748 26.6588C166.535 34.0053 143.467 34.0004 122.257 26.6449L79.2814 11.741C53.9357 2.95116 25.874 4.83615 1.84042 16.7548C-25.0909 30.1104 -56.8817 30.781 -84.2483 18.3417L-97.9604 12.1089C-117.804 3.08931 -140.452 2.4843 -160.749 10.4316C-191.661 22.5358 -212 52.343 -212 85.5405V318C-212 373.228 -167.228 418 -112 418H915C970.229 418 1015 373.228 1015 318V112.782C1015 64.9784 981.167 23.86 934.258 14.6539L870.452 2.13147C856.576 -0.59186 842.279 -0.341181 828.507 2.86696L730.07 25.7969C716.752 28.8993 702.938 29.2371 689.484 26.7894Z" fill="url(#paint0_linear_1_3548)"/>
<defs>
<linearGradient id="paint0_linear_1_3548" x1="401.5" y1="-68.6207" x2="401.928" y2="417.472" gradientUnits="userSpaceOnUse">
<stop stop-color="#486CEB"/>
<stop offset="1" stop-color="#002074"/>
</linearGradient>
</defs>
</svg>
